<svg data-name="Group 4686" xmlns="http://www.w3.org/2000/svg" width="732.755" height="359.027" viewBox="0 0 732.755 359.027"><defs><clipPath id="a"><path data-name="Rectangle 929" fill="none" d="M0 0h732.755v359.027H0z"/></clipPath></defs><g data-name="Group 4685" clip-path="url(#a)"><path data-name="Path 6537" d="M731.191 284.9c-2.674-6.4-8.343-10.076-15.553-10.076-8.69 0-19.3 5.409-31.544 16.08-5.351 4.671-12.387 8.331-16.014 8.335-.077 0-.147 0-.2-.008-.338-1.19-.962-5.967 4.231-19.242l.119-.322c1.532-4.593 8.853-23.037 15.937-40.873 9.7-24.435 15.766-39.777 16.948-43.69 5.861-16.108 2.767-25.7-.876-30.919-4.41-6.322-11.943-9.8-21.211-9.8-14.1 0-31.128 8.29-40.339 22.356-13.52-17.816-29.338-21.92-41.028-21.92-18.2 0-37.951 9.868-55.628 27.79-24.957 25.3-40.466 60.453-40.923 92.417-8.176 8.4-27.019 24.941-40.278 24.941a12.026 12.026 0 0 1-3.4-.461 4.092 4.092 0 0 1-2.548-2.4C453.662 287.086 459.7 259 465 242.6c57.193-60.226 89.193-124.971 97.659-143.439 17.771-38.232 21.549-66.026 11.233-82.611C567.343 6.031 555.682.5 539.219.1a72.723 72.723 0 0 0-3.741-.1C501.794 0 480.22 24.614 470.3 39.377c-10.2 15.7-25.332 50.472-39.5 90.754-16.581 47.138-30.663 98.181-39.744 144.022-8.519 7.231-19.491 12.737-28.417 17.217-2.066 1.039-4.014 2.017-5.788 2.942-7.924 4.142-14.947 6.236-20.873 6.241-7.006 0-12.036-2.922-15.366-8.938-8.539-15.419-2.882-41.937 8.124-64.457a23.276 23.276 0 0 0 6.627 15.937c5.817 6.089 14.738 9.586 24.484 9.586a38.875 38.875 0 0 0 27.259-10.94c8.4-8.152 13.071-20.11 13.52-34.584s-3.9-26.868-12.578-35.819c-9.293-9.587-23.31-14.869-39.463-14.869-23.877 0-49.653 11.344-68.944 30.337-15.847 15.611-34.9 43.576-36.121 88.39-1.875 4.272-10.4 21.5-26.881 24.688a5.344 5.344 0 0 1-1.015.11 1.51 1.51 0 0 1-1.435-.73c-3.745-4.744-4.94-23.518 4.031-60.947 4.81-22.128 6.823-29.615 9.158-38.289 1.789-6.648 3.819-14.184 7.414-29.4 3.044-12.9 11.559-44.4 19.793-74.858 9.8-36.251 15.839-58.693 16.573-63.112 2.119-12.774-5.841-23.913-19.385-27.1a59.906 59.906 0 0 0-13.621-1.647 49.983 49.983 0 0 0-22.075 5.116c-11.5 5.613-19.169 16.74-22.181 32.188C186.522 70.8 181.134 90.4 176.378 107.7c-5.552 20.2-10.349 37.641-16.5 64.432-.428 1.818-.933 4.067-1.52 6.668-3.713 16.459-10.626 47.089-20.5 73.526-14.681 39.3-26.746 45.173-32.632 45.173a10.674 10.674 0 0 1-1.129-.061c-4.561-.509-6.338-2.25-7.378-3.709-6.693-9.391-.256-38.159 1.9-47.766 6.094-23.714 12.281-45.17 18.264-65.92 7.406-25.682 14.4-49.946 19.98-74.381 7.651-29.253 3.383-58.172-11.433-77.377C114.077 13.556 97.72 5.771 78.14 5.771c-11.9 0-24.81 2.922-38.391 8.682C7.329 28.209-3.586 66.783 1 89.339c2.78 13.667 11.025 21.823 22.059 21.823h.261c18.615-.212 19.3-19.585 19.671-29.994.077-2.157.151-4.2.305-6 1.472-8.107 5.3-17.62 15.179-17.62h.363c9.248 2.572 12.2 7.234 7 39.557q-1.809 6.169-3.77 12.782c-10.63 35.974-23.861 80.744-36.512 137.4-9.085 41.195-5.824 71.874 9.7 91.19 10.644 13.254 27.114 20.549 46.381 20.549a78.785 78.785 0 0 0 30.3-6.045c15.932-6.827 24.924-13.976 34.14-28.78 8.918 21.651 25.087 33.745 45.9 33.745 20.991 0 44.684-12.619 63.776-33.517 9.725 18.195 28.36 29.579 44.289 31.878a84.434 84.434 0 0 0 15.774 1.483c33.157 0 62.284-19.308 78.714-32.942 7.157 21.562 24.59 33.672 49.241 33.672 26.159 0 57.214-14.164 75.559-33.525 8.421 15.024 23.2 32.526 46.339 32.526 16.683 0 33.259-9.55 44.664-24.672a39.744 39.744 0 0 0 9.256 15.383c6.909 6.966 16.3 10.65 27.162 10.65 9.623 0 20.2-2.947 30.569-8.523 18.594-9.342 22.654-12.713 45.642-34.621l.143-.139c8.514-8.613 11.914-21.521 8.082-30.7M579.563 299.4a12.213 12.213 0 0 1-2.075-.183c-5.983-2.2-6.635-13.128-2.055-34.323 8.221-38.717 27.309-56.969 31.589-59.406l.685-.432c2.874-2.075 5.588-3.212 7.642-3.212a4.437 4.437 0 0 1 3.725 1.94c2.421 3.029 4.4 10.337 2.022 20.954-.888 3.6-12.5 32.514-23.037 58.025-6.041 11.041-12.26 16.637-18.5 16.637m-82.403-154.319c7.92-23.367 20.078-54.25 36.386-81.645 4.593-6.436 8.176-9.379 10.157-10.524.192 2.523-.33 7.867-3.79 16.687-12.876 32.9-28.283 55.848-42.753 75.482" fill="#fff"/><path data-name="Path 6538" d="M722.557 288.505c-1.2-2.87-3.526-4.325-6.917-4.325-4.378 0-12.334 2.389-25.393 13.769-6.065 5.3-15.272 10.642-22.165 10.642-4.337 0-6.651-2.05-7.826-3.774-3.383-4.956-2.359-14.192 3.139-28.238 1.573-4.72 8.612-22.459 16.071-41.24 7.439-18.737 15.867-39.973 16.715-43.041l.065-.2c3.624-9.86 3.734-17.661.314-22.556-2.609-3.742-7.418-5.8-13.54-5.8-14.449 0-32.685 11.2-36.8 27.879l-1.577 6.411-3.143-5.808c-9.929-18.345-23.705-28.042-39.85-28.042-15.672 0-33.06 8.877-48.968 25-23.628 23.954-38.632 58.7-38.228 88.521l.016 1.015-.685.746c-1.117 1.219-27.6 29.86-48.96 29.864a21.226 21.226 0 0 1-6.069-.852 13.377 13.377 0 0 1-8.184-7.048c-9.11-17.514 5.4-61.358 6.016-63.213l.18-.542.4-.412c56.855-59.488 88.623-123.749 97-142.025 16.129-34.706 20.2-60.2 11.775-73.737-4.785-7.691-13.886-11.739-27.048-12.036-1.206-.07-2.319-.1-3.419-.1-29.342 0-48.528 22.022-57.352 35.151-19.515 30.034-58.774 133.509-78.337 233.708l-.163.827-.623.567c-9.664 8.82-22.144 15.085-32.171 20.119a401.174 401.174 0 0 0-5.653 2.874c-9.273 4.842-17.751 7.3-25.2 7.3-10.422 0-18.562-4.757-23.547-13.756-10.736-19.376-4.406-54.992 15.383-86.609 6.485-10.357 17.322-17.05 27.61-17.05 5.339 0 9.937 1.88 12.945 5.291 3.142 3.563 4.414 8.584 3.668 14.514l-.795 6.334-3.791-5.14c-3.248-4.4-7.6-6.823-12.26-6.823-7.15 0-15.534 6.069-17.091 19.393a14.18 14.18 0 0 0 4.031 10.573c4 4.19 10.621 6.689 17.718 6.689 13.976 0 30.593-9.546 31.425-36.451.375-12.069-2.971-21.83-9.945-29.021-7.516-7.752-19.145-12.024-32.742-12.024-21.48 0-44.8 10.337-62.378 27.647-14.767 14.539-32.538 40.779-33.366 83.2l-.008.432-.151.408c-.407 1.1-10.251 26.9-34.266 31.556a14.58 14.58 0 0 1-2.792.281 10.845 10.845 0 0 1-8.78-4.3c-9.028-11.441-3.762-43.718 2.246-68.777 4.846-22.3 6.888-29.892 9.256-38.685 1.773-6.582 3.783-14.042 7.341-29.122 3.077-13.039 11.616-44.615 19.866-75.148 8.066-29.835 15.684-58.016 16.377-62.2 1.3-7.81-3.636-14.421-12.272-16.45-11.168-2.58-20.4-1.655-29.477 2.767-11.119 5.417-15.452 16.981-17.131 25.727-7.447 29.93-12.864 49.632-17.644 67.016-5.527 20.094-10.3 37.445-16.406 64.069-.424 1.813-.926 4.035-1.508 6.611-13.23 58.656-32.269 125.987-62.252 125.995a19.426 19.426 0 0 1-2.168-.122c-6.167-.689-10.866-3.237-13.956-7.578-6.411-8.991-6.285-25.543.412-55.347 6.154-23.958 12.37-45.516 18.382-66.36 7.377-25.589 14.351-49.759 19.87-73.974 6.978-26.587 3.33-52.53-9.742-69.478-9.521-12.346-23.314-18.872-39.891-18.872-10.634 0-22.315 2.67-34.731 7.936C15.94 34.718 6.321 68.548 10.169 87.476c1.088 5.352 4.211 14.331 12.888 14.331 9.167-.106 10.137-8.372 10.581-20.971.085-2.408.167-4.679.367-6.819l.028-.2c2.862-16.29 11.772-25.632 24.439-25.632q.776 0 1.565.049l.489.078c19.613 5.107 19.43 20.086 14.482 50.7l-.07.314q-1.87 6.365-3.9 13.206c-10.585 35.843-23.767 80.446-36.351 136.779-8.441 38.285-5.8 66.316 7.855 83.308 11.327 14.095 27.508 17.054 39.092 17.054a69.189 69.189 0 0 0 26.616-5.29c17.094-7.329 24.888-13.936 37.347-38.632l3.248-6.448 1.52 7.06c5.873 27.231 20.649 42.23 41.607 42.23 20.975 0 45.414-14.84 63.788-38.721l3.089-4.015 1.386 4.871c5.959 20.893 25.275 34.095 41.281 36.341a75.611 75.611 0 0 0 14.3 1.369c36.855 0 68.9-26.628 80.964-38.077l3.57-3.383.713 4.867c4.528 30.846 25.723 37.323 42.707 37.323 26.681 0 60.275-17.074 74.879-38.061l2.609-3.742 1.826 4.178c13.23 30.272 30.459 36.626 42.581 36.626 17.062 0 36.145-11.918 51-39.365l-.025 3.24c-.11 12.925 3.208 23.163 9.6 29.6 5.111 5.156 12.2 7.882 20.518 7.882 8.107 0 17.172-2.576 26.212-7.451 17.906-8.991 21.419-12.028 43.543-33.109 6.4-6.476 8.115-15.5 6.045-20.465m-245.64-108.155c.64-4.337 18.264-70.876 48.728-121.935l.11-.171c7-9.867 13.879-15.3 19.365-15.3a7.085 7.085 0 0 1 6.012 3.175c3.289 4.826 2.4 14.38-2.511 26.9-15.7 40.115-34.89 65.659-51.825 88.195-5.442 7.247-10.585 14.09-15.244 20.946l-6.265 9.224Zm153.3 46.466c-1.235 5.506-21.362 54.311-23.653 59.859l-.114.241c-7.964 14.7-16.76 21.847-26.893 21.847a22.039 22.039 0 0 1-4.275-.428l-.257-.065c-15.313-4.748-13.014-25.572-8.747-45.32 9.036-42.549 30.508-62.353 36.072-65.565 4.545-3.244 8.914-4.891 12.994-4.891a13.783 13.783 0 0 1 11.033 5.453c5.046 6.3 6.481 17.094 3.84 28.87" fill="#f2a900"/></g></svg>